<svg xmlns="http://www.w3.org/2000/svg" version="1.1"><polyline points="0,50 
10,50 10,150 22,150 22,50
93,50 93,150 106,150 106,50
135,50 135,150 148,150 148,50
177,50 177,150 190,150 190,50
219,50 219,150 232,150 232,50
261,50 261,150 274,150 274,50
303,50 303,150 316,150 316,50
387,50 387,150 400,150 400,50
429,50 429,150 442,150 442,50
471,50 471,150 484,150 484,50
513,50 513,150 526,150 526,50
555,50 555,150 568,150 568,50
597,50 597,150 610,150 610,50
639,50 639,150 652,150 652,50
723,50 723,150 736,150 736,50
765,50 765,150 778,150 778,50
2694,50 2694,150 2706,150 2706,50
2778,50 2778,150 2790,150 2790,50
2820,50 2820,150 2832,150 2832,50
2862,50 2862,150 2874,150 2874,50
2904,50 2904,150 2916,150 2916,50
2946,50 2946,150 2958,150 2958,50
3030,50 3030,150 3042,150 3042,50
3072,50 3072,150 3084,150 3084,50
3156,50 3156,150 3168,150 3168,50
3240,50 3240,150 3252,150 3252,50
3324,50 3324,150 3336,150 3336,50
3408,50 3408,150 3420,150 3420,50
3492,50 3492,150 3504,150 3504,50
3576,50 3576,150 3588,150 3588,50
3618,50 3618,150 3630,150 3630,50
3702,50 3702,150 3714,150 3714,50
5378,50 5378,150 5391,150 5391,50
5462,50 5462,150 5475,150 5475,50
5504,50 5504,150 5517,150 5517,50
5546,50 5546,150 5559,150 5559,50
5588,50 5588,150 5601,150 5601,50
5630,50 5630,150 5643,150 5643,50
5672,50 5672,150 5685,150 5685,50
5756,50 5756,150 5769,150 5769,50
5798,50 5798,150 5811,150 5811,50
5840,50 5840,150 5853,150 5853,50
5882,50 5882,150 5895,150 5895,50
5924,50 5924,150 5937,150 5937,50
5966,50 5966,150 5979,150 5979,50
6008,50 6008,150 6021,150 6021,50
6092,50 6092,150 6105,150 6105,50
6134,50 6134,150 6147,150 6147,50
8062,50 8062,150 8075,150 8075,50
8146,50 8146,150 8159,150 8159,50
" style="fill:white;stroke:black;stroke-width:1"/></svg>
